<svg width="270" height="275" viewBox="0 0 270 275" fill="none" xmlns="http://www.w3.org/2000/svg">
<path d="M6.07111 150V95.1457H21.2846V150H6.07111ZM13.7136 88.0746C11.4518 88.0746 9.51141 87.3247 7.89245 85.8248C6.29729 84.301 5.49971 82.4797 5.49971 80.3608C5.49971 78.2656 6.29729 76.4681 7.89245 74.9682C9.51141 73.4445 11.4518 72.6826 13.7136 72.6826C15.9754 72.6826 17.9038 73.4445 19.499 74.9682C21.118 76.4681 21.9274 78.2656 21.9274 80.3608C21.9274 82.4797 21.118 84.301 19.499 85.8248C17.9038 87.3247 15.9754 88.0746 13.7136 88.0746ZM45.668 118.287V150H30.4545V95.1457H44.9537V104.824H45.5966C46.8108 101.633 48.8464 99.1098 51.7034 97.2527C54.5604 95.3719 58.0245 94.4315 62.0957 94.4315C65.905 94.4315 69.2263 95.2648 72.0595 96.9313C74.8927 98.5979 77.0949 100.979 78.6663 104.074C80.2376 107.145 81.0233 110.812 81.0233 115.073V150H65.8098V117.787C65.8336 114.43 64.9765 111.812 63.2385 109.931C61.5005 108.026 59.1078 107.074 56.0603 107.074C54.0128 107.074 52.2034 107.514 50.632 108.395C49.0845 109.276 47.8703 110.562 46.9893 112.252C46.1322 113.919 45.6918 115.93 45.668 118.287ZM139.173 95.1457L119.995 150H102.853L83.6757 95.1457H99.7462L111.139 134.394H111.71L123.066 95.1457H139.173Z" fill="#FFC300"/>
<path d="M35.2482 195.929V207.357H2.21417V195.929H35.2482ZM9.71378 182.787H24.9273V233.927C24.9273 235.332 25.1416 236.427 25.5701 237.213C25.9986 237.974 26.5939 238.51 27.3557 238.82C28.1414 239.129 29.0461 239.284 30.0699 239.284C30.7841 239.284 31.4984 239.224 32.2126 239.105C32.9269 238.962 33.4745 238.855 33.8554 238.784L36.2481 250.105C35.4863 250.343 34.4149 250.617 33.034 250.926C31.6531 251.259 29.9746 251.462 27.9985 251.533C24.3321 251.676 21.118 251.188 18.3562 250.069C15.6182 248.95 13.4874 247.212 11.9637 244.855C10.4399 242.498 9.68997 239.522 9.71378 235.927V182.787ZM42.1414 250.783V195.929H56.8906V205.5H57.462C58.462 202.095 60.1404 199.524 62.4975 197.786C64.8545 196.024 67.5686 195.143 70.6399 195.143C71.4018 195.143 72.2232 195.191 73.1041 195.286C73.985 195.381 74.7587 195.512 75.4254 195.679V209.178C74.7111 208.964 73.7231 208.774 72.4612 208.607C71.1994 208.44 70.0447 208.357 68.9971 208.357C66.7591 208.357 64.7593 208.845 62.9974 209.821C61.2594 210.773 59.8786 212.107 58.8548 213.821C57.8548 215.535 57.3549 217.511 57.3549 219.749V250.783H42.1414ZM94.3447 251.819C90.8449 251.819 87.726 251.212 84.9881 249.998C82.2501 248.76 80.0836 246.938 78.4884 244.534C76.9171 242.105 76.1314 239.081 76.1314 235.463C76.1314 232.415 76.6909 229.856 77.8099 227.784C78.9289 225.713 80.4526 224.047 82.3811 222.785C84.3095 221.523 86.4999 220.571 88.9522 219.928C91.4282 219.285 94.0233 218.833 96.7375 218.571C99.9278 218.237 102.499 217.928 104.451 217.642C106.404 217.333 107.82 216.88 108.701 216.285C109.582 215.69 110.022 214.809 110.022 213.642V213.428C110.022 211.166 109.308 209.416 107.88 208.178C106.475 206.94 104.475 206.321 101.88 206.321C99.1421 206.321 96.9637 206.928 95.3447 208.143C93.7257 209.333 92.6544 210.833 92.1306 212.642L78.0599 211.5C78.7741 208.166 80.1788 205.286 82.2739 202.857C84.3691 200.405 87.0713 198.524 90.3807 197.215C93.7138 195.881 97.5708 195.215 101.951 195.215C104.999 195.215 107.915 195.572 110.701 196.286C113.51 197 115.998 198.107 118.165 199.607C120.355 201.107 122.081 203.036 123.343 205.393C124.605 207.726 125.236 210.523 125.236 213.785V250.783H110.808V243.177H110.38C109.499 244.891 108.32 246.403 106.844 247.712C105.368 248.998 103.594 250.009 101.523 250.748C99.4516 251.462 97.0589 251.819 94.3447 251.819ZM98.7017 241.319C100.94 241.319 102.916 240.879 104.63 239.998C106.344 239.093 107.689 237.879 108.665 236.355C109.642 234.832 110.13 233.106 110.13 231.177V225.356C109.653 225.666 108.999 225.951 108.165 226.213C107.356 226.451 106.439 226.677 105.416 226.892C104.392 227.082 103.368 227.261 102.344 227.427C101.321 227.57 100.392 227.701 99.5588 227.82C97.7731 228.082 96.2137 228.499 94.8804 229.07C93.5472 229.642 92.5115 230.415 91.7734 231.391C91.0354 232.344 90.6664 233.534 90.6664 234.963C90.6664 237.034 91.4163 238.617 92.9162 239.712C94.44 240.784 96.3684 241.319 98.7017 241.319ZM158.806 251.855C153.188 251.855 148.355 250.664 144.307 248.283C140.284 245.879 137.188 242.546 135.022 238.284C132.879 234.022 131.808 229.118 131.808 223.57C131.808 217.952 132.891 213.023 135.058 208.785C137.248 204.524 140.355 201.203 144.379 198.822C148.402 196.417 153.188 195.215 158.735 195.215C163.52 195.215 167.711 196.084 171.306 197.822C174.901 199.56 177.746 202 179.841 205.143C181.936 208.285 183.091 211.976 183.305 216.214H168.949C168.544 213.476 167.473 211.273 165.735 209.607C164.02 207.916 161.771 207.071 158.985 207.071C156.628 207.071 154.569 207.714 152.807 209C151.069 210.262 149.712 212.107 148.735 214.535C147.759 216.964 147.271 219.904 147.271 223.356C147.271 226.856 147.747 229.832 148.7 232.284C149.676 234.736 151.045 236.605 152.807 237.891C154.569 239.177 156.628 239.82 158.985 239.82C160.723 239.82 162.282 239.462 163.663 238.748C165.068 238.034 166.223 236.998 167.127 235.641C168.056 234.26 168.663 232.606 168.949 230.677H183.305C183.067 234.867 181.924 238.558 179.877 241.748C177.853 244.915 175.056 247.391 171.484 249.176C167.913 250.962 163.687 251.855 158.806 251.855ZM203.814 234.998L203.849 216.749H206.064L223.634 195.929H241.097L217.492 223.499H213.885L203.814 234.998ZM190.029 250.783V177.644H205.242V250.783H190.029ZM224.313 250.783L208.171 226.892L218.313 216.142L242.133 250.783H224.313ZM254.437 251.712C252.08 251.712 250.056 250.878 248.366 249.212C246.699 247.522 245.866 245.498 245.866 243.141C245.866 240.808 246.699 238.808 248.366 237.141C250.056 235.475 252.08 234.641 254.437 234.641C256.722 234.641 258.722 235.475 260.436 237.141C262.151 238.808 263.008 240.808 263.008 243.141C263.008 244.712 262.603 246.153 261.794 247.462C261.008 248.748 259.972 249.783 258.687 250.569C257.401 251.331 255.984 251.712 254.437 251.712Z" fill="black"/>
</svg>
